<svg id="Layer_1" data-name="Layer 1" xmlns="http://www.w3.org/2000/svg" viewBox="0 0 60 60"><defs><style>.cls-1{fill:#fff;}.cls-2{fill:none;stroke:#000;stroke-linecap:round;stroke-miterlimit:10;stroke-width:2px;}</style></defs><title>Artboard 1</title><circle class="cls-1" cx="30" cy="30" r="30"/><path class="cls-2" d="M13.34,15.25h4.28a1.32,1.32,0,0,1,1.11.6l1.21,1.8a1.33,1.33,0,0,0,1.11.6H45.32a1.34,1.34,0,0,1,1.24,1.86l-3.88,9.31a1.35,1.35,0,0,1-1.24.83H24.38a1.35,1.35,0,0,1-1.3-1l-2.74-11"/><path class="cls-2" d="M38.84,38.75h-17a7.9,7.9,0,0,1,.76-8"/><circle cx="23.84" cy="42.75" r="2"/><circle cx="39.84" cy="42.75" r="2"/></svg>