<?xml version="1.0" encoding="utf-8"?>
<!-- Generator: Adobe Illustrator 23.1.0, SVG Export Plug-In . SVG Version: 6.00 Build 0)  -->
<svg version="1.1" id="Capa_1" xmlns="http://www.w3.org/2000/svg" xmlns:xlink="http://www.w3.org/1999/xlink" x="0px" y="0px"
	 viewBox="0 0 512 512" style="enable-background:new 0 0 512 512;" xml:space="preserve">
<style type="text/css">
	.st0{fill:#F4E9D3;}
	.st1{fill:#E5D6BE;}
	.st2{fill:#FFAA5C;}
	.st3{fill:#FF9838;}
</style>
<path class="st0" d="M256,8c92.8,0,177.4,170.9,186.4,289.8C452,423.8,363.1,504,256,504S60,423.8,69.6,297.8
	C78.6,178.9,163.2,8,256,8L256,8z"/>
<path class="st1" d="M256,486c-99.1,0-182.6-68.7-186.9-178.8C64.5,427.8,151.6,504,256,504s191.5-76.2,186.9-196.8
	C438.6,417.3,355.1,486,256,486L256,486z"/>
<ellipse transform="matrix(0.7071 -0.7071 0.7071 0.7071 -153.9859 275.8077)" class="st2" cx="255.9" cy="323.8" rx="107.2" ry="107.2"/>
<path class="st3" d="M256,413c-56.2,0-102.3-43.2-106.8-98.2c-0.2,3-0.4,6-0.4,9c0,59.2,48,107.2,107.2,107.2s107.2-48,107.2-107.2
	c0-3-0.1-6-0.4-9C358.2,369.8,312.2,413,256,413L256,413z"/>
</svg>
